<svg width="34" height="34" viewBox="0 0 34 34" fill="none" xmlns="http://www.w3.org/2000/svg">
<path d="M34 17C34 26.3888 26.3888 34 17 34C7.61116 34 0 26.3888 0 17C0 7.61116 7.61116 0 17 0C26.3888 0 34 7.61116 34 17Z" fill="black"/>
<path d="M26.9923 9.62403C27.0608 9.07602 26.6721 8.57622 26.124 8.50772L17.1935 7.39141C16.6455 7.32291 16.1457 7.71163 16.0772 8.25965C16.0087 8.80767 16.3974 9.30746 16.9455 9.37597L24.8837 10.3682L23.8914 18.3065C23.8229 18.8545 24.2116 19.3543 24.7597 19.4228C25.3077 19.4913 25.8075 19.1026 25.876 18.5545L26.9923 9.62403ZM8.61394 24.2894L26.6139 10.2894L25.3861 8.71065L7.38606 22.7106L8.61394 24.2894Z" fill="#F7FE8E"/>
</svg>
