<svg width="21" height="6" viewBox="0 0 21 6" fill="none" xmlns="http://www.w3.org/2000/svg">
<path d="M0 2.99023C0 2.70378 0.0520833 2.43685 0.15625 2.18945C0.273438 1.92904 0.423177 1.70768 0.605469 1.52539C0.800781 1.33008 1.02214 1.18034 1.26953 1.07617C1.52995 0.958984 1.80339 0.900391 2.08984 0.900391C2.38932 0.900391 2.66276 0.958984 2.91016 1.07617C3.17057 1.18034 3.39193 1.33008 3.57422 1.52539C3.76953 1.70768 3.91927 1.92904 4.02344 2.18945C4.14062 2.43685 4.19922 2.70378 4.19922 2.99023C4.19922 3.58919 3.9974 4.09049 3.59375 4.49414C3.1901 4.89779 2.6888 5.09961 2.08984 5.09961C1.80339 5.09961 1.52995 5.04102 1.26953 4.92383C1.02214 4.81966 0.800781 4.67643 0.605469 4.49414C0.423177 4.29883 0.273438 4.07747 0.15625 3.83008C0.0520833 3.56966 0 3.28971 0 2.99023Z" fill="black"/>
<path d="M8.20312 2.99023C8.20312 2.70378 8.25521 2.43685 8.35938 2.18945C8.47656 1.92904 8.6263 1.70768 8.80859 1.52539C9.00391 1.33008 9.22526 1.18034 9.47266 1.07617C9.73307 0.958984 10.0065 0.900391 10.293 0.900391C10.5924 0.900391 10.8659 0.958984 11.1133 1.07617C11.3737 1.18034 11.5951 1.33008 11.7773 1.52539C11.9727 1.70768 12.1224 1.92904 12.2266 2.18945C12.3438 2.43685 12.4023 2.70378 12.4023 2.99023C12.4023 3.58919 12.2005 4.09049 11.7969 4.49414C11.3932 4.89779 10.8919 5.09961 10.293 5.09961C10.0065 5.09961 9.73307 5.04102 9.47266 4.92383C9.22526 4.81966 9.00391 4.67643 8.80859 4.49414C8.6263 4.29883 8.47656 4.07747 8.35938 3.83008C8.25521 3.56966 8.20312 3.28971 8.20312 2.99023Z" fill="black"/>
<path d="M16.4062 2.99023C16.4062 2.70378 16.4583 2.43685 16.5625 2.18945C16.6797 1.92904 16.8294 1.70768 17.0117 1.52539C17.207 1.33008 17.4284 1.18034 17.6758 1.07617C17.9362 0.958984 18.2096 0.900391 18.4961 0.900391C18.7956 0.900391 19.069 0.958984 19.3164 1.07617C19.5768 1.18034 19.7982 1.33008 19.9805 1.52539C20.1758 1.70768 20.3255 1.92904 20.4297 2.18945C20.5469 2.43685 20.6055 2.70378 20.6055 2.99023C20.6055 3.58919 20.4036 4.09049 20 4.49414C19.5964 4.89779 19.0951 5.09961 18.4961 5.09961C18.2096 5.09961 17.9362 5.04102 17.6758 4.92383C17.4284 4.81966 17.207 4.67643 17.0117 4.49414C16.8294 4.29883 16.6797 4.07747 16.5625 3.83008C16.4583 3.56966 16.4062 3.28971 16.4062 2.99023Z" fill="black"/>
</svg>
